<svg height='100px' width='100px'  fill="#FFFFFF" xmlns="http://www.w3.org/2000/svg" xmlns:xlink="http://www.w3.org/1999/xlink" version="1.1" x="0px" y="0px" viewBox="0 0 100 100" enable-background="new 0 0 100 100" xml:space="preserve"><g><g><g><g><path fill="#FFFFFF" d="M65.421,87.666H36.189v-8.77h29.231V87.666z M39.112,84.742h23.386V81.82H39.112V84.742z"></path></g></g></g><g><g><g><g><path fill="#FFFFFF" d="M60.756,73.867H40.814V46.833c-1.656-1.304-6.043-5.259-8.39-12.139l-0.382-1.122l8.113-4.817       l0.751,1.242c0.936,1.546,4.208,5.962,6.879,5.962l0.962-0.001c3.594,0,12.009,0,12.009,10.232V73.867z M43.737,70.945h14.096       V46.189c0-6.751-4.296-7.309-9.086-7.309l-0.962,0.001c-3.745,0-7.082-4.032-8.581-6.162l-3.603,2.14       c2.667,6.733,7.437,9.991,7.488,10.024l0.648,0.434V70.945z"></path></g></g></g><g><g><g><path fill="#FFFFFF" d="M51.832,57.887c-0.502,0-0.99-0.117-1.441-0.355c-0.836-0.441-1.413-1.182-1.673-2.141       c-0.919-3.419,2.594-9.29,3.309-10.433l2.477,1.549c-1.492,2.396-3.398,6.5-2.963,8.125c0.063,0.234,0.152,0.281,0.215,0.314       c2.001-0.609,4.787-5.253,6.209-8.359l2.66,1.216c-0.66,1.44-4.128,8.688-7.668,9.893       C52.578,57.824,52.201,57.887,51.832,57.887z"></path></g></g></g><g><g><g><path fill="#FFFFFF" d="M32.687,34.056c-0.108-0.194-2.638-4.833-3.023-10.335l2.917-0.203c0.34,4.864,2.641,9.083,2.664,9.125       L32.687,34.056z"></path></g></g></g><g><g><g><path fill="#FFFFFF" d="M37.782,31.397c-0.108-0.157-2.706-3.891-3.103-8.341l2.912-0.26c0.326,3.651,2.561,6.887,2.583,6.919       L37.782,31.397z"></path></g></g></g><g><g><g><path fill="#FFFFFF" d="M33.809,26.28c-1.95,0-3.537-1.586-3.537-3.535v-3.8c0-1.95,1.587-3.535,3.537-3.535       s3.534,1.585,3.534,3.535v3.8C37.343,24.694,35.758,26.28,33.809,26.28z M33.809,18.333c-0.34,0-0.614,0.274-0.614,0.612v3.8       c0,0.673,1.225,0.679,1.225,0v-3.8C34.419,18.606,34.146,18.333,33.809,18.333z"></path></g></g></g><g><g><g><rect x="29.241" y="15.41" fill="#FFFFFF" width="8.952" height="2.923"></rect></g></g></g><g><g><g><path fill="#FFFFFF" d="M33.806,17.555l-0.733-0.428c-2.367-1.375-3.834-3.909-3.834-6.613c0-2.703,1.467-5.238,3.834-6.613       l0.733-0.428l0.734,0.428c2.366,1.375,3.833,3.91,3.833,6.613c0,2.704-1.467,5.238-3.833,6.613L33.806,17.555z M33.806,6.948       c-1.042,0.894-1.644,2.174-1.644,3.565s0.602,2.672,1.644,3.565c1.042-0.894,1.645-2.174,1.645-3.565       S34.848,7.842,33.806,6.948z"></path></g></g></g><g><g><g><path fill="#FFFFFF" d="M43.395,74.004c-0.477,0-0.962-0.057-1.459-0.176l0.68-2.844c4.262,1.035,8.436-7.063,9.563-9.973       l2.724,1.057C54.701,62.588,50.197,74.004,43.395,74.004z"></path></g></g></g><g><g><g><path fill="#FFFFFF" d="M50.023,35.676c-3.075,0-5.484-3.159-5.484-7.192c0-4.032,2.409-7.19,5.484-7.19       s5.481,3.159,5.481,7.19C55.504,32.517,53.098,35.676,50.023,35.676z M50.023,24.216c-1.21,0-2.561,1.753-2.561,4.268       c0,2.517,1.35,4.27,2.561,4.27S52.58,31,52.58,28.483C52.58,25.969,51.233,24.216,50.023,24.216z"></path></g></g></g><g><g><g><path fill="#FFFFFF" d="M43.583,27.078l-2.86-0.597c1.125-5.39,4.95-9.153,9.3-9.153c4.295,0,8.107,3.701,9.266,9.001       l-2.855,0.625c-0.864-3.947-3.499-6.703-6.411-6.703C47.071,20.251,44.422,23.059,43.583,27.078z"></path></g></g></g><g><g><g><rect x="38.811" y="21.296" transform="matrix(0.9272 0.3746 -0.3746 0.9272 11.5179 -13.7432)" fill="#FFFFFF" width="4.603" height="2.922"></rect></g></g></g><g><g><g><rect x="57.806" y="20.456" transform="matrix(0.375 0.927 -0.927 0.375 58.1413 -40.7194)" fill="#FFFFFF" width="2.922" height="4.603"></rect></g></g></g><g><g><g><rect x="48.561" y="14.13" fill="#FFFFFF" width="2.923" height="4.659"></rect></g></g></g><g><g><g><rect x="42.024" y="16.871" transform="matrix(0.6368 0.771 -0.771 0.6368 30.2817 -27.6164)" fill="#FFFFFF" width="4.859" height="2.924"></rect></g></g></g><g><g><g><rect x="54.127" y="15.904" transform="matrix(0.7713 0.6364 -0.6364 0.7713 24.3794 -31.1867)" fill="#FFFFFF" width="2.925" height="4.859"></rect></g></g></g></g><g><g><g><path fill="#FFFFFF" d="M58.479,81.82h-16.2V71.078h16.2V81.82z M45.201,78.896h10.354V74H45.201V78.896z"></path></g></g></g><g><g><g><path fill="#FFFFFF" d="M70.762,93.551H30.848v-8.809h39.914V93.551z M33.771,90.627h34.066v-2.961H33.771V90.627z"></path></g></g></g></g><g><g><g><path fill="#FFFFFF" d="M66.488,60.863h-2.924V48.075c0-2.726-0.33-5.117-0.984-7.105l2.775-0.914     c0.754,2.284,1.133,4.981,1.133,8.019V60.863z"></path></g></g></g><g><g><g><path fill="#FFFFFF" d="M61.002,37.79c-0.725-0.983-1.336-1.341-1.342-1.344l1.381-2.577c0.189,0.1,1.199,0.675,2.313,2.186     L61.002,37.79z"></path></g></g></g></svg>